# xmcd
#
# Track frame offsets:
#  150
#  20295
#  39215
#  53167
#  66817
#  86597
#  102207
#  117187
#  126610
#  148685
#  165770
#  199352
#  218625
#
# Disc length: 3088 seconds
#
# Revision: 0
# Processed by: cddbd v1.5.1PL2 Copyright (c) Steve Scherf et al.
# Submitted via: Collectorz.com_Music_Collector 6.9
#
DISCID=af0c0e0d
DTITLE=Little Buster and The Soul Brothers - Work Your Show
DYEAR=2000
DGENRE=misc - Soul
TTITLE0=Jealous Love
TTITLE1=Down In Virginia
TTITLE2=Just Because
TTITLE3=Hi Heel Sneakers
TTITLE4=You're Gonna Make Me Cry
TTITLE5=I Got A Mind To Travel
TTITLE6=Send Me Some Lovin'
TTITLE7=Ain't That Lovin' You Baby
TTITLE8=You Must Pay For Your Sins
TTITLE9=Don't Lrt The Green Grass Fool You
TTITLE10=How Blue Can You Get
TTITLE11=I Love To See You Smile
TTITLE12=Mojo Hand
EXTD=
EXTT0=
EXTT1=
EXTT2=
EXTT3=
EXTT4=
EXTT5=
EXTT6=
EXTT7=
EXTT8=
EXTT9=
EXTT10=
EXTT11=
EXTT12=
PLAYORDER=
